<svg height="700pt" preserveAspectRatio="xMidYMid meet" viewBox="0 0 700 700" width="700pt" xmlns="http://www.w3.org/2000/svg"><path d="m3220 6954c-138-21-165-25-210-36-25-5-53-11-63-13s-27-7-37-10-27-8-37-10c-97-19-328-112-478-191-634-333-1106-986-1215-1680-6-38-13-80-15-94-14-81-18-210-20-595-1-236-3-432-4-435 0-3-100-5-221-5-205 0-221-2-247-21-62-46-58 92-58-1870 1-1683 2-1792 18-1817 39-60 39-60 382-60h314l11-27c19-45 58-60 157-60s128 11 158 56l20 31h1827c1747 0 1828-1 1833-18 4-10 20-30 36-44 28-23 38-25 129-25 97 0 100 1 135 31 19 17 35 37 35 43 0 10 72 13 314 13 344 0 344 0 383 60 17 26 18 125 18 1816 0 1430-3 1795-13 1821-25 64-51 70-297 70l-220 1-1 435c-1 239-4 462-8 495-13 133-18 164-37 260-25 125-78 309-109 380-5 11-23 54-40 95-38 93-118 242-178 335-383 595-996 979-1702 1070-125 16-454 16-560-1zm476-937c12-3 39-8 60-11 346-55 713-297 916-602 88-134 178-338 203-462 7-35 22-125 30-180 5-33 9-664 6-842l-1-35h-1410c-1247 0-1410 2-1411 15-4 62 1 846 5 868 3 15 8 47 11 72 9 68 43 196 77 284 89 229 245 443 433 592 28 21 52 41 55 44 5 6 102 68 135 87 140 79 318 140 494 168 81 12 346 14 397 2zm-289-3034c98-46 103-221 8-275-119-67-260 16-249 148 10 121 125 182 241 127zm906-464c29-6 70-20 93-31l41-19-30-103-30-104-37 19c-49 26-154 47-207 43-88-7-139-56-137-131 1-57 33-90 133-138 161-78 184-91 236-138 33-29 65-70 82-105 25-50 28-68 28-152 0-82-4-103-26-151-68-145-222-220-447-220-131 0-312 52-312 89 0 9 7 40 16 67 9 28 17 55 18 60 1 6 6 24 10 41l7 31 87-35c78-32 97-36 183-36 89-1 98 1 137 28 34 23 42 35 48 71 15 101-16 135-202 225-189 91-269 182-278 315-13 181 110 334 306 380 62 15 208 12 281-6zm-842-14c3-71-2-1193-6-1230-34-292-185-443-471-471-70-7-67-11-79 101-3 33-8 74-10 91-4 31-3 32 48 42 155 32 204 98 221 297 3 28 5 303 5 612l1 562 23 3c55 8 267 2 268-7zm-680-846c129-43 165-244 59-333-31-25-45-31-102-40-61-10-142 34-173 94-21 41-25 116-8 166 32 93 132 143 224 113z" transform="matrix(.1 0 0 -.1 0 700)"/></svg>