<svg viewBox="0 0 256 256" xmlns="http://www.w3.org/2000/svg" xmlns:xlink="http://www.w3.org/1999/xlink"><linearGradient id="a" gradientTransform="matrix(1 0 0 -1 0 258)" gradientUnits="userSpaceOnUse" x1="256.16" x2="203.87" y1="-147.08" y2="371.99"><stop offset=".27" stop-color="#e3d9ff"/><stop offset="1" stop-color="#7341ff"/></linearGradient><linearGradient id="b" gradientTransform="matrix(1 0 0 -1 0 258)" gradientUnits="userSpaceOnUse" x1="120.77" x2="14.42" y1="16.66" y2="436.61"><stop offset="0" stop-color="#e3d9ff"/><stop offset="1" stop-color="#7341ff"/></linearGradient><radialGradient id="c" cx="-1095.85" cy="510.65" gradientTransform="matrix(123.61 0 0 -125.04 135716.62 63903.61)" gradientUnits="userSpaceOnUse" r="2.41"><stop offset=".56" stop-color="#6d4aff"/><stop offset=".99" stop-color="#aa8eff"/></radialGradient><path d="m201.35 63.24v168.5h27.93c14.61 0 26.44-12 26.44-26.77v-174.74c0-5.05-5.8-7.8-9.64-4.57l-44.73 37.59z" fill="url(#a)" fill-rule="evenodd"/><path d="m162.39 96.01-51.03 45.65c-8.7 7.77-21.69 7.96-30.6.45l-80.76-67.98v-43.88c0-5.05 5.8-7.82 9.64-4.6l101.33 85.16c9.8 8.25 24.01 8.25 33.81 0z" fill="url(#b)" fill-rule="evenodd"/><path d="m201.35 63.26-38.96 32.75h.03s-51.06 45.65-51.06 45.65c-8.7 7.77-21.69 7.96-30.6.45l-80.76-67.98v130.83c0 14.77 11.84 26.77 26.44 26.77h174.91z" fill="url(#c)"/></svg>