<svg viewBox="0 0 256 256" xmlns="http://www.w3.org/2000/svg"><g fill-rule="evenodd"><path d="m210.14 0h24.09c11.9 0 21.77 9.36 21.77 21.26v213.47c0 11.62-9.58 21.26-21.77 21.26h-51.38l16.55-45.36c1.74-5.1-.87-10.77-6.1-12.47-.87-.28-1.74-.57-2.61-.57-1.16 0-2.03 0-3.19.28-3.19.85-5.81 3.12-6.97 6.24l-3.77 9.36v-38.84c0-6.24-4.64-11.34-10.74-12.47h-4.64c-.29 0-.58 0-.87.28-.29 0-.58.28-.87.28h-.29c-1.45.57-2.9 1.42-4.35 2.55v-2.27c0-3.12-1.45-5.95-3.48-8.22-.29-.28-.58-.57-.58-.57-.58-.57-1.45-1.13-2.32-1.7v-15.03c0-2.83-2.32-5.39-5.52-5.39h-23.51c-4.06 0-6.68-3.97-4.93-7.65l47.31-94.97c9.56-17.56 28.14-29.19 48.17-29.47zm-15.97 85.33c6.1 0 11.03-4.82 11.03-10.77s-4.93-10.77-11.03-10.77-11.03 4.82-11.03 10.77 4.93 10.77 11.03 10.77z" fill="#103253"/><path d="m153.05 26.85c2.69-10.74-5.37-26.85-18.8-26.85h-42.38c-20.52 0-38.96 11.6-48.18 30.03l-43.12 88.6c-1.78 3.57.89 7.73 4.76 7.73h19.04c3.57 0 6.25 3.27 5.06 6.84l-5.06 18.73c0 .3.3.59.59.59 14.28 0 25.58 11.6 25.58 25.87v2.38c0 14.27-11.6 25.87-25.58 25.87h-12.19c-1.78-.3-3.57.89-4.16 2.68-6.54 23.49 11 46.68 35.1 46.68h54.73v-60.65c0-5.35 4.46-9.81 9.82-9.81h1.78v-11c0-6.84 5.65-12.49 12.49-12.49 3.27 0 6.25 1.19 8.33 3.27v-2.08c0-5.05 2.97-9.51 7.44-11.3v-9.22h-17.55c-11.6 0-19.04-12.19-13.98-22.89l46.31-92.97zm-76.64 58.78c5.95 0 10.71-4.76 10.71-10.7s-4.76-10.7-10.71-10.7-10.71 4.76-10.71 10.7 4.76 10.7 10.71 10.7z" fill="#377abc"/></g></svg>