<svg viewBox="0 0 256 256" xmlns="http://www.w3.org/2000/svg"><circle cx="128" cy="128" fill="#ff004f" r="128"/><path d="m127.96 229.34c-27.12 0-52.56-10.49-71.64-29.53-19.1-19.06-29.63-44.54-29.66-71.73-.01-10.41 1.59-20.76 4.74-30.69l.06-.22c.7-2.45 1.55-4.8 2.54-7 .18-.44.38-.93.58-1.41.88-2.01 4.36-8.92 12.7-14.16 7.54-4.74 14.16-5.15 14.93-5.18 1.82-.22 3.71-.32 5.59-.32 8.56 0 16.12 3.38 21.3 9.55 3.94 4.7 6.08 10.46 6.24 16.78 4.85-2.5 10.22-3.82 15.67-3.85 8.56 0 16.13 3.39 21.3 9.55.31.37.61.75.9 1.14 6.87-6.82 15.94-10.69 25.12-10.69 8.56 0 16.12 3.39 21.3 9.55 5.25 6.26 7.3 14.48 5.78 23.14l-5.38 30.46c-.72 4.1.14 7.86 2.41 10.57 2.19 2.62 5.57 4.06 9.5 4.06 11.86 0 16.02-8.64 18.76-17.97 2.34-8.26 3.42-16.86 3.21-25.53-.53-22.31-9.78-43.52-25.75-59.1-15.87-15.69-37.24-24.55-59.56-24.69h-.59c-17.12 0-33.67 5.04-47.86 14.6-1.28.87-2.8 1.34-4.35 1.34-2.24 0-4.37-.98-5.83-2.68l-.04-.05c-2.75-3.23-2.35-8.08.88-10.83.22-.19.45-.36.69-.52 17.26-11.67 37.71-17.69 58.54-17.25 25.99.5 50.78 11.02 69.2 29.36 18.53 18.23 29.3 42.91 30.06 68.9.3 9.72-.81 19.44-3.28 28.85l-.34 1.26-.15.5c-.91 3.22-1.98 6.39-3.2 9.5-.63 1.5-4.14 9.14-12.79 14.58-7.48 4.7-13.38 4.94-14.08 4.96-1.17.11-2.34.16-3.51.16-8.56 0-16.13-3.39-21.3-9.55-5.25-6.26-7.3-14.48-5.78-23.14l5.38-30.46c.72-4.1-.14-7.86-2.41-10.56-2.19-2.62-5.57-4.06-9.5-4.06-9.33 0-18.6 7.92-20.25 17.3l-5.88 31.98c-.37 2.01-2.12 3.46-4.16 3.46h-7.06c-2.33 0-4.22-1.87-4.23-4.2 0-.26.02-.52.07-.78l6.1-33.15c.72-4.08-.14-7.84-2.4-10.55-2.2-2.61-5.58-4.05-9.5-4.05-9.32 0-18.59 7.92-20.25 17.3l-5.87 31.98c-.37 2.01-2.12 3.46-4.16 3.46h-7.06c-2.32.01-4.22-1.86-4.23-4.18 0-.27.02-.54.07-.8l6.11-33.27 4.1-22.39c.72-4.07-.14-7.81-2.42-10.52-2.19-2.62-5.57-4.06-9.5-4.06-9.68 0-15.91 3.72-19.63 11.7-4.48 11.2-6.54 23.21-6.04 35.26.86 21.9 10.13 42.5 26.08 58.02 15.96 15.51 36.82 24.19 58.74 24.46h1.03c18.13 0 35.48-5.6 50.18-16.21 1.29-.94 2.84-1.44 4.44-1.44 4.25-.01 7.71 3.42 7.72 7.67 0 2.49-1.18 4.82-3.2 6.27-17.21 12.46-37.93 19.15-59.18 19.11" fill="#fff2f6" fill-rule="evenodd"/></svg>