<svg viewBox="0 0 256 256" xmlns="http://www.w3.org/2000/svg"><path d="m128.11 2.13c-70.84 0-128.11 57.69-128.11 129.06 0 57.05 36.69 105.34 87.6 122.43 6.36 1.28 8.7-2.78 8.7-6.19 0-2.99-.21-13.25-.21-23.93-35.64 7.69-43.06-15.38-43.06-15.38-5.73-14.96-14.21-18.8-14.21-18.8-11.66-7.91.85-7.91.85-7.91 12.94.85 19.73 13.25 19.73 13.25 11.45 19.66 29.9 14.1 37.33 10.68 1.06-8.33 4.46-14.1 8.06-17.31-28.42-2.99-58.33-14.1-58.33-63.68 0-14.1 5.09-25.64 13.15-34.61-1.27-3.2-5.73-16.45 1.27-34.19 0 0 10.82-3.42 35.21 13.25 10.44-2.83 21.21-4.26 32.03-4.27 10.82 0 21.84 1.5 32.03 4.27 24.39-16.67 35.21-13.25 35.21-13.25 7 17.73 2.54 30.98 1.27 34.19 8.27 8.97 13.15 20.51 13.15 34.61 0 49.57-29.9 60.47-58.54 63.68 4.67 4.06 8.7 11.75 8.7 23.93 0 17.31-.21 31.2-.21 35.47 0 3.42 2.33 7.48 8.7 6.2 50.9-17.1 87.6-65.39 87.6-122.43.21-71.37-57.27-129.06-127.89-129.06z" fill="#24292f" fill-rule="evenodd"/></svg>