<svg viewBox="0 0 256 256" xmlns="http://www.w3.org/2000/svg"><path d="m229.17 113.95h-15.07v-26.78c0-47.56-38.55-86.11-86.1-86.11s-86.1 38.55-86.1 86.1v26.78h-15.07c-2.38 0-4.31 1.93-4.31 4.31v129.16c0 2.38 1.93 4.31 4.31 4.31h21.68c.48 1.85 2.15 3.23 4.15 3.23h4.31c2 0 3.67-1.38 4.15-3.23h133.77c.48 1.85 2.15 3.23 4.15 3.23h4.31c2 0 3.67-1.38 4.15-3.23h21.68c2.38 0 4.31-1.93 4.31-4.31v-129.16c0-2.38-1.93-4.31-4.31-4.31zm-152.84-26.78c0-28.49 23.18-51.66 51.66-51.66s51.66 23.18 51.66 51.66v26.78h-103.33v-26.78z"/><g fill="#fff"><path d="m93.4 202.05c0-4.12 2.82-7.05 6.6-7.05s6.53 2.82 6.55 7.05c0 4.08-2.61 6.99-6.6 6.99s-6.57-2.92-6.55-6.99z"/><path d="m106.06 218.39c3.14-.31 5.91-1.12 7.6-3.04 1.95-2.18 2.64-5.6 2.64-14.53v-36.71h10.69v39.59c0 9.26-1.76 14.59-5.61 18.28-3.57 3.33-9.33 4.78-14.28 4.81l-1.04-8.39zm21.47-66.37c.02 3.3-2.31 5.87-6.02 5.87-3.47 0-5.82-2.57-5.79-5.87-.02-3.4 2.44-5.89 5.95-5.89s5.84 2.49 5.87 5.89z"/><path d="m137.28 198.22c2.22 1.38 6.48 2.94 10.14 2.94 4.46 0 6.62-1.99 6.62-4.97s-1.65-4.52-6.67-6.64c-7.99-3.24-11.22-7.79-11.2-12.78 0-7.69 6.16-13.59 15.73-13.59 4.47 0 8.26 1.15 10.71 2.48l-2.14 7.61c-1.8-1.05-4.89-2.34-8.32-2.34-3.77 0-5.81 2.03-5.81 4.64s1.81 4.03 6.97 6.25c7.36 3.03 10.89 7.19 10.92 13.38 0 8.31-6.26 13.73-16.88 13.73-4.77 0-9.36-1.19-12.22-2.92l2.14-7.81z"/></g></svg>